<mxfile host="65bd71144e">
    <diagram name="components" id="90a13364-a465-7bf4-72fc-28e22215d7a0">
        <mxGraphModel dx="1898" dy="966" grid="1" gridSize="10" guides="1" tooltips="1" connect="1" arrows="1" fold="1" page="1" pageScale="1.5" pageWidth="1169" pageHeight="826" background="none" math="0" shadow="0">
            <root>
                <mxCell id="0" style=";html=1;"/>
                <mxCell id="1" style=";html=1;" parent="0"/>
                <mxCell id="3a17f1ce550125da-8" value="Database" style="whiteSpace=wrap;html=1;shadow=1;fontSize=18;fillColor=#f5f5f5;strokeColor=#666666;fontColor=#CC0000;" parent="1" vertex="1">
                    <mxGeometry x="146" y="370" width="120" height="150" as="geometry"/>
                </mxCell>
                <mxCell id="w9PpDW04hk27npNrvOM6-2" style="edgeStyle=orthogonalEdgeStyle;rounded=0;orthogonalLoop=1;jettySize=auto;html=1;exitX=0;exitY=0.5;exitDx=0;exitDy=0;entryX=1;entryY=0.5;entryDx=0;entryDy=0;fontColor=#CC0000;" parent="1" source="w9PpDW04hk27npNrvOM6-1" target="3a17f1ce550125da-8" edge="1">
                    <mxGeometry relative="1" as="geometry"/>
                </mxCell>
                <mxCell id="w9PpDW04hk27npNrvOM6-1" value="Backend" style="whiteSpace=wrap;html=1;shadow=1;fontSize=18;fillColor=#f5f5f5;strokeColor=#666666;fontColor=#CC0000;" parent="1" vertex="1">
                    <mxGeometry x="407" y="370" width="120" height="150" as="geometry"/>
                </mxCell>
                <mxCell id="w9PpDW04hk27npNrvOM6-31" style="edgeStyle=orthogonalEdgeStyle;rounded=0;orthogonalLoop=1;jettySize=auto;html=1;exitX=0.5;exitY=1;exitDx=0;exitDy=0;entryX=0.5;entryY=0;entryDx=0;entryDy=0;fontColor=#CC0000;" parent="1" source="w9PpDW04hk27npNrvOM6-1" target="w9PpDW04hk27npNrvOM6-30" edge="1">
                    <mxGeometry relative="1" as="geometry">
                        <mxPoint x="240" y="682.5" as="sourcePoint"/>
                    </mxGeometry>
                </mxCell>
                <mxCell id="w9PpDW04hk27npNrvOM6-7" style="edgeStyle=orthogonalEdgeStyle;rounded=0;orthogonalLoop=1;jettySize=auto;html=1;exitX=0;exitY=0.5;exitDx=0;exitDy=0;entryX=1.017;entryY=0.3;entryDx=0;entryDy=0;entryPerimeter=0;fontColor=#CC0000;" parent="1" source="w9PpDW04hk27npNrvOM6-5" target="w9PpDW04hk27npNrvOM6-11" edge="1">
                    <mxGeometry relative="1" as="geometry"/>
                </mxCell>
                <mxCell id="w9PpDW04hk27npNrvOM6-17" style="edgeStyle=orthogonalEdgeStyle;rounded=0;orthogonalLoop=1;jettySize=auto;html=1;exitX=0.5;exitY=0;exitDx=0;exitDy=0;entryX=0.5;entryY=1;entryDx=0;entryDy=0;fontColor=#CC0000;" parent="1" source="w9PpDW04hk27npNrvOM6-5" target="w9PpDW04hk27npNrvOM6-16" edge="1">
                    <mxGeometry relative="1" as="geometry"/>
                </mxCell>
                <mxCell id="w9PpDW04hk27npNrvOM6-5" value="App" style="whiteSpace=wrap;html=1;shadow=1;fontSize=18;fillColor=#f5f5f5;strokeColor=#666666;fontColor=#CC0000;" parent="1" vertex="1">
                    <mxGeometry x="1100" y="340" width="120" height="150" as="geometry"/>
                </mxCell>
                <mxCell id="w9PpDW04hk27npNrvOM6-8" style="edgeStyle=orthogonalEdgeStyle;rounded=0;orthogonalLoop=1;jettySize=auto;html=1;exitX=0;exitY=0.5;exitDx=0;exitDy=0;entryX=1;entryY=0.75;entryDx=0;entryDy=0;fontColor=#CC0000;" parent="1" source="w9PpDW04hk27npNrvOM6-6" target="w9PpDW04hk27npNrvOM6-11" edge="1">
                    <mxGeometry relative="1" as="geometry"/>
                </mxCell>
                <mxCell id="w9PpDW04hk27npNrvOM6-6" value="Browser" style="whiteSpace=wrap;html=1;shadow=1;fontSize=18;fillColor=#f5f5f5;strokeColor=#666666;fontColor=#CC0000;" parent="1" vertex="1">
                    <mxGeometry x="1100" y="570" width="120" height="150" as="geometry"/>
                </mxCell>
                <mxCell id="w9PpDW04hk27npNrvOM6-10" style="edgeStyle=orthogonalEdgeStyle;rounded=0;orthogonalLoop=1;jettySize=auto;html=1;exitX=0.5;exitY=0;exitDx=0;exitDy=0;entryX=0.5;entryY=1;entryDx=0;entryDy=0;fontColor=#CC0000;" parent="1" source="w9PpDW04hk27npNrvOM6-9" target="w9PpDW04hk27npNrvOM6-6" edge="1">
                    <mxGeometry relative="1" as="geometry"/>
                </mxCell>
                <mxCell id="w9PpDW04hk27npNrvOM6-9" value="Mail Client" style="whiteSpace=wrap;html=1;shadow=1;fontSize=18;fillColor=#f5f5f5;strokeColor=#666666;fontColor=#CC0000;" parent="1" vertex="1">
                    <mxGeometry x="1100" y="780" width="120" height="150" as="geometry"/>
                </mxCell>
                <mxCell id="w9PpDW04hk27npNrvOM6-13" style="edgeStyle=orthogonalEdgeStyle;rounded=0;orthogonalLoop=1;jettySize=auto;html=1;exitX=0;exitY=0.5;exitDx=0;exitDy=0;entryX=1;entryY=0.5;entryDx=0;entryDy=0;fontColor=#CC0000;" parent="1" source="w9PpDW04hk27npNrvOM6-11" target="w9PpDW04hk27npNrvOM6-12" edge="1">
                    <mxGeometry relative="1" as="geometry"/>
                </mxCell>
                <mxCell id="w9PpDW04hk27npNrvOM6-11" value="Cloudflare" style="whiteSpace=wrap;html=1;shadow=1;fontSize=18;fillColor=#f5f5f5;strokeColor=#666666;fontColor=#CC0000;" parent="1" vertex="1">
                    <mxGeometry x="800" y="370" width="120" height="150" as="geometry"/>
                </mxCell>
                <mxCell id="w9PpDW04hk27npNrvOM6-14" style="edgeStyle=orthogonalEdgeStyle;rounded=0;orthogonalLoop=1;jettySize=auto;html=1;exitX=0;exitY=0.5;exitDx=0;exitDy=0;entryX=1;entryY=0.5;entryDx=0;entryDy=0;fontColor=#CC0000;" parent="1" source="w9PpDW04hk27npNrvOM6-12" target="w9PpDW04hk27npNrvOM6-1" edge="1">
                    <mxGeometry relative="1" as="geometry"/>
                </mxCell>
                <mxCell id="w9PpDW04hk27npNrvOM6-12" value="Reverse Proxy" style="whiteSpace=wrap;html=1;shadow=1;fontSize=18;fillColor=#f5f5f5;strokeColor=#666666;fontColor=#CC0000;" parent="1" vertex="1">
                    <mxGeometry x="610" y="370" width="120" height="150" as="geometry"/>
                </mxCell>
                <mxCell id="w9PpDW04hk27npNrvOM6-15" value="https://gm.colinsmale.eu" style="text;html=1;strokeColor=none;fillColor=none;align=center;verticalAlign=middle;whiteSpace=wrap;rounded=0;fontColor=#CC0000;" parent="1" vertex="1">
                    <mxGeometry x="915" y="431" width="153" height="30" as="geometry"/>
                </mxCell>
                <mxCell id="w9PpDW04hk27npNrvOM6-16" value="Phone" style="whiteSpace=wrap;html=1;shadow=1;fontSize=18;fillColor=#f5f5f5;strokeColor=#666666;fontColor=#CC0000;" parent="1" vertex="1">
                    <mxGeometry x="1100" y="140" width="120" height="150" as="geometry"/>
                </mxCell>
                <mxCell id="w9PpDW04hk27npNrvOM6-18" value="&lt;ul&gt;&lt;li&gt;API&lt;/li&gt;&lt;li&gt;Web&lt;/li&gt;&lt;/ul&gt;" style="text;html=1;strokeColor=none;fillColor=none;align=left;verticalAlign=middle;whiteSpace=wrap;rounded=0;labelBorderColor=none;fontColor=#CC0000;" parent="1" vertex="1">
                    <mxGeometry x="402" y="460" width="130" height="30" as="geometry"/>
                </mxCell>
                <mxCell id="w9PpDW04hk27npNrvOM6-19" value="&lt;ul&gt;&lt;li&gt;Location&lt;/li&gt;&lt;li&gt;Google Maps&lt;/li&gt;&lt;li&gt;Local storage&lt;/li&gt;&lt;/ul&gt;" style="text;html=1;strokeColor=none;fillColor=none;align=left;verticalAlign=middle;whiteSpace=wrap;rounded=0;fontColor=#CC0000;" parent="1" vertex="1">
                    <mxGeometry x="1100" y="230" width="120" height="40" as="geometry"/>
                </mxCell>
                <mxCell id="w9PpDW04hk27npNrvOM6-21" value="&lt;ul&gt;&lt;li&gt;PostgreSQL&lt;/li&gt;&lt;li&gt;Postgis&lt;/li&gt;&lt;/ul&gt;" style="text;html=1;strokeColor=none;fillColor=none;align=left;verticalAlign=middle;whiteSpace=wrap;rounded=0;fontColor=#CC0000;" parent="1" vertex="1">
                    <mxGeometry x="134" y="460" width="130" height="30" as="geometry"/>
                </mxCell>
                <mxCell id="w9PpDW04hk27npNrvOM6-23" value="&lt;ul&gt;&lt;li&gt;React Native&lt;/li&gt;&lt;li&gt;Expo&lt;/li&gt;&lt;/ul&gt;" style="text;html=1;strokeColor=none;fillColor=none;align=left;verticalAlign=middle;whiteSpace=wrap;rounded=0;fontColor=#CC0000;" parent="1" vertex="1">
                    <mxGeometry x="1095" y="430" width="130" height="30" as="geometry"/>
                </mxCell>
                <mxCell id="w9PpDW04hk27npNrvOM6-26" value="" style="endArrow=none;dashed=1;html=1;dashPattern=1 3;strokeWidth=2;rounded=0;fontColor=#CC0000;" parent="1" edge="1">
                    <mxGeometry width="50" height="50" relative="1" as="geometry">
                        <mxPoint x="120" y="640" as="sourcePoint"/>
                        <mxPoint x="770" y="120" as="targetPoint"/>
                        <Array as="points">
                            <mxPoint x="770" y="640"/>
                        </Array>
                    </mxGeometry>
                </mxCell>
                <mxCell id="w9PpDW04hk27npNrvOM6-27" value="" style="endArrow=none;dashed=1;html=1;dashPattern=1 3;strokeWidth=2;rounded=0;fontColor=#CC0000;" parent="1" edge="1">
                    <mxGeometry width="50" height="50" relative="1" as="geometry">
                        <mxPoint x="1030" y="1020" as="sourcePoint"/>
                        <mxPoint x="1030" y="120" as="targetPoint"/>
                    </mxGeometry>
                </mxCell>
                <mxCell id="w9PpDW04hk27npNrvOM6-33" style="edgeStyle=orthogonalEdgeStyle;rounded=0;orthogonalLoop=1;jettySize=auto;html=1;exitX=1;exitY=0.5;exitDx=0;exitDy=0;entryX=0;entryY=0.5;entryDx=0;entryDy=0;fontColor=#CC0000;" parent="1" source="w9PpDW04hk27npNrvOM6-28" target="w9PpDW04hk27npNrvOM6-9" edge="1">
                    <mxGeometry relative="1" as="geometry"/>
                </mxCell>
                <mxCell id="w9PpDW04hk27npNrvOM6-28" value="User Mail Server" style="whiteSpace=wrap;html=1;shadow=1;fontSize=18;fillColor=#f5f5f5;strokeColor=#666666;fontColor=#CC0000;" parent="1" vertex="1">
                    <mxGeometry x="830" y="780" width="120" height="150" as="geometry"/>
                </mxCell>
                <mxCell id="w9PpDW04hk27npNrvOM6-32" style="edgeStyle=orthogonalEdgeStyle;rounded=0;orthogonalLoop=1;jettySize=auto;html=1;exitX=1;exitY=0.5;exitDx=0;exitDy=0;entryX=0;entryY=0.5;entryDx=0;entryDy=0;fontColor=#CC0000;" parent="1" source="w9PpDW04hk27npNrvOM6-30" target="w9PpDW04hk27npNrvOM6-28" edge="1">
                    <mxGeometry relative="1" as="geometry"/>
                </mxCell>
                <mxCell id="w9PpDW04hk27npNrvOM6-30" value="Mail Server" style="whiteSpace=wrap;html=1;shadow=1;fontSize=18;fillColor=#f5f5f5;strokeColor=#666666;fontColor=#CC0000;" parent="1" vertex="1">
                    <mxGeometry x="407" y="780" width="120" height="150" as="geometry"/>
                </mxCell>
                <mxCell id="w9PpDW04hk27npNrvOM6-34" value="&lt;ul&gt;&lt;li&gt;Nginx&lt;/li&gt;&lt;/ul&gt;" style="text;html=1;strokeColor=none;fillColor=none;align=left;verticalAlign=middle;whiteSpace=wrap;rounded=0;fontColor=#CC0000;" parent="1" vertex="1">
                    <mxGeometry x="605" y="463" width="130" height="30" as="geometry"/>
                </mxCell>
                <mxCell id="w9PpDW04hk27npNrvOM6-20" value="&lt;ul&gt;&lt;li&gt;smtp.kpn.com&lt;/li&gt;&lt;/ul&gt;" style="text;html=1;strokeColor=none;fillColor=none;align=left;verticalAlign=middle;whiteSpace=wrap;rounded=0;fontColor=#CC0000;" parent="1" vertex="1">
                    <mxGeometry x="390" y="860" width="130" height="30" as="geometry"/>
                </mxCell>
                <mxCell id="2" value="&lt;font style=&quot;font-size: 18px;&quot;&gt;&lt;b&gt;Backend Infrastructure&lt;/b&gt;&lt;/font&gt;" style="text;html=1;strokeColor=none;fillColor=none;align=center;verticalAlign=middle;whiteSpace=wrap;rounded=0;fontColor=#CC0000;" vertex="1" parent="1">
                    <mxGeometry x="111" y="210" width="259" height="30" as="geometry"/>
                </mxCell>
                <mxCell id="3" value="&lt;span style=&quot;font-size: 18px;&quot;&gt;&lt;b&gt;Internet&lt;/b&gt;&lt;/span&gt;" style="text;html=1;strokeColor=none;fillColor=none;align=center;verticalAlign=middle;whiteSpace=wrap;rounded=0;fontColor=#CC0000;" vertex="1" parent="1">
                    <mxGeometry x="560" y="690" width="259" height="30" as="geometry"/>
                </mxCell>
                <mxCell id="4" value="&lt;span style=&quot;font-size: 18px;&quot;&gt;&lt;b&gt;Client infrastructure&lt;/b&gt;&lt;/span&gt;" style="text;html=1;strokeColor=none;fillColor=none;align=center;verticalAlign=middle;whiteSpace=wrap;rounded=0;fontColor=#CC0000;" vertex="1" parent="1">
                    <mxGeometry x="1068" y="960" width="259" height="30" as="geometry"/>
                </mxCell>
            </root>
        </mxGraphModel>
    </diagram>
    <diagram id="Ami_KUuSs5F_m9lNLe5E" name="app">
        <mxGraphModel dx="949" dy="1583" grid="1" gridSize="10" guides="1" tooltips="1" connect="1" arrows="1" fold="1" page="1" pageScale="1" pageWidth="850" pageHeight="1100" math="0" shadow="0">
            <root>
                <mxCell id="0"/>
                <mxCell id="1" parent="0"/>
                <mxCell id="8ANzz9DT1mpfte5bSANO-1" value="Components in app&lt;br&gt;&lt;div style=&quot;color: rgb(204, 204, 204); background-color: rgb(31, 31, 31); font-family: Consolas, &amp;quot;Courier New&amp;quot;, monospace; font-size: 14px; line-height: 19px;&quot;&gt;&lt;div&gt;&amp;nbsp; &amp;nbsp; &lt;span style=&quot;color: #9cdcfe;&quot;&gt;&quot;@expo/vector-icons&quot;&lt;/span&gt;: &lt;span style=&quot;color: #ce9178;&quot;&gt;&quot;^13.0.0&quot;&lt;/span&gt;,&lt;/div&gt;&lt;div&gt;&amp;nbsp; &amp;nbsp; &lt;span style=&quot;color: #9cdcfe;&quot;&gt;&quot;@expo/webpack-config&quot;&lt;/span&gt;: &lt;span style=&quot;color: #ce9178;&quot;&gt;&quot;^19.0.0&quot;&lt;/span&gt;,&lt;/div&gt;&lt;div&gt;&amp;nbsp; &amp;nbsp; &lt;span style=&quot;color: #9cdcfe;&quot;&gt;&quot;@react-native-async-storage/async-storage&quot;&lt;/span&gt;: &lt;span style=&quot;color: #ce9178;&quot;&gt;&quot;^1.19.8&quot;&lt;/span&gt;,&lt;/div&gt;&lt;div&gt;&amp;nbsp; &amp;nbsp; &lt;span style=&quot;color: #9cdcfe;&quot;&gt;&quot;@react-native/metro-config&quot;&lt;/span&gt;: &lt;span style=&quot;color: #ce9178;&quot;&gt;&quot;^0.73.2&quot;&lt;/span&gt;,&lt;/div&gt;&lt;div&gt;&amp;nbsp; &amp;nbsp; &lt;span style=&quot;color: #9cdcfe;&quot;&gt;&quot;@react-navigation/bottom-tabs&quot;&lt;/span&gt;: &lt;span style=&quot;color: #ce9178;&quot;&gt;&quot;^6.5.11&quot;&lt;/span&gt;,&lt;/div&gt;&lt;div&gt;&amp;nbsp; &amp;nbsp; &lt;span style=&quot;color: #9cdcfe;&quot;&gt;&quot;@react-navigation/native&quot;&lt;/span&gt;: &lt;span style=&quot;color: #ce9178;&quot;&gt;&quot;^6.1.9&quot;&lt;/span&gt;,&lt;/div&gt;&lt;div&gt;&amp;nbsp; &amp;nbsp; &lt;span style=&quot;color: #9cdcfe;&quot;&gt;&quot;@react-navigation/native-stack&quot;&lt;/span&gt;: &lt;span style=&quot;color: #ce9178;&quot;&gt;&quot;^6.9.17&quot;&lt;/span&gt;,&lt;/div&gt;&lt;div&gt;&amp;nbsp; &amp;nbsp; &lt;span style=&quot;color: #9cdcfe;&quot;&gt;&quot;axios&quot;&lt;/span&gt;: &lt;span style=&quot;color: #ce9178;&quot;&gt;&quot;^1.6.2&quot;&lt;/span&gt;,&lt;/div&gt;&lt;div&gt;&amp;nbsp; &amp;nbsp; &lt;span style=&quot;color: #9cdcfe;&quot;&gt;&quot;expo&quot;&lt;/span&gt;: &lt;span style=&quot;color: #ce9178;&quot;&gt;&quot;~49.0.15&quot;&lt;/span&gt;,&lt;/div&gt;&lt;div&gt;&amp;nbsp; &amp;nbsp; &lt;span style=&quot;color: #9cdcfe;&quot;&gt;&quot;expo-location&quot;&lt;/span&gt;: &lt;span style=&quot;color: #ce9178;&quot;&gt;&quot;^16.3.0&quot;&lt;/span&gt;,&lt;/div&gt;&lt;div&gt;&amp;nbsp; &amp;nbsp; &lt;span style=&quot;color: #9cdcfe;&quot;&gt;&quot;expo-splash-screen&quot;&lt;/span&gt;: &lt;span style=&quot;color: #ce9178;&quot;&gt;&quot;~0.20.5&quot;&lt;/span&gt;,&lt;/div&gt;&lt;div&gt;&amp;nbsp; &amp;nbsp; &lt;span style=&quot;color: #9cdcfe;&quot;&gt;&quot;expo-status-bar&quot;&lt;/span&gt;: &lt;span style=&quot;color: #ce9178;&quot;&gt;&quot;~1.6.0&quot;&lt;/span&gt;,&lt;/div&gt;&lt;div&gt;&amp;nbsp; &amp;nbsp; &lt;span style=&quot;color: #9cdcfe;&quot;&gt;&quot;expo-system-ui&quot;&lt;/span&gt;: &lt;span style=&quot;color: #ce9178;&quot;&gt;&quot;^2.4.0&quot;&lt;/span&gt;,&lt;/div&gt;&lt;div&gt;&amp;nbsp; &amp;nbsp; &lt;span style=&quot;color: #9cdcfe;&quot;&gt;&quot;react&quot;&lt;/span&gt;: &lt;span style=&quot;color: #ce9178;&quot;&gt;&quot;18.2.0&quot;&lt;/span&gt;,&lt;/div&gt;&lt;div&gt;&amp;nbsp; &amp;nbsp; &lt;span style=&quot;color: #9cdcfe;&quot;&gt;&quot;react-dom&quot;&lt;/span&gt;: &lt;span style=&quot;color: #ce9178;&quot;&gt;&quot;18.2.0&quot;&lt;/span&gt;,&lt;/div&gt;&lt;div&gt;&amp;nbsp; &amp;nbsp; &lt;span style=&quot;color: #9cdcfe;&quot;&gt;&quot;react-native&quot;&lt;/span&gt;: &lt;span style=&quot;color: #ce9178;&quot;&gt;&quot;^0.72.6&quot;&lt;/span&gt;,&lt;/div&gt;&lt;div&gt;&amp;nbsp; &amp;nbsp; &lt;span style=&quot;color: #9cdcfe;&quot;&gt;&quot;react-native-element-dropdown&quot;&lt;/span&gt;: &lt;span style=&quot;color: #ce9178;&quot;&gt;&quot;^2.10.0&quot;&lt;/span&gt;,&lt;/div&gt;&lt;div&gt;&amp;nbsp; &amp;nbsp; &lt;span style=&quot;color: #9cdcfe;&quot;&gt;&quot;react-native-maps&quot;&lt;/span&gt;: &lt;span style=&quot;color: #ce9178;&quot;&gt;&quot;^1.7.1&quot;&lt;/span&gt;,&lt;/div&gt;&lt;div&gt;&amp;nbsp; &amp;nbsp; &lt;span style=&quot;color: #9cdcfe;&quot;&gt;&quot;react-native-safe-area-context&quot;&lt;/span&gt;: &lt;span style=&quot;color: #ce9178;&quot;&gt;&quot;^4.6.3&quot;&lt;/span&gt;,&lt;/div&gt;&lt;div&gt;&amp;nbsp; &amp;nbsp; &lt;span style=&quot;color: #9cdcfe;&quot;&gt;&quot;react-native-screens&quot;&lt;/span&gt;: &lt;span style=&quot;color: #ce9178;&quot;&gt;&quot;^3.22.0&quot;&lt;/span&gt;,&lt;/div&gt;&lt;div&gt;&amp;nbsp; &amp;nbsp; &lt;span style=&quot;color: #9cdcfe;&quot;&gt;&quot;react-native-web&quot;&lt;/span&gt;: &lt;span style=&quot;color: #ce9178;&quot;&gt;&quot;~0.19.6&quot;&lt;/span&gt;&lt;/div&gt;&lt;/div&gt;" style="text;strokeColor=none;align=center;fillColor=none;html=1;verticalAlign=middle;whiteSpace=wrap;rounded=0;labelBorderColor=none;fontSize=18;fontColor=#CC0000;" vertex="1" parent="1">
                    <mxGeometry x="140" y="-20" width="520" height="470" as="geometry"/>
                </mxCell>
            </root>
        </mxGraphModel>
    </diagram>
</mxfile>